<?xml version="1.0" encoding="utf-8"?>
<!-- Generator: Adobe Illustrator 18.0.0, SVG Export Plug-In . SVG Version: 6.00 Build 0)  -->
<!DOCTYPE svg PUBLIC "-//W3C//DTD SVG 1.1//EN" "http://www.w3.org/Graphics/SVG/1.1/DTD/svg11.dtd">
<svg version="1.1" id="Camada_1" xmlns="http://www.w3.org/2000/svg" xmlns:xlink="http://www.w3.org/1999/xlink" x="0px" y="0px"
	 viewBox="0 0 188.5 231.9" enable-background="new 0 0 188.5 231.9" xml:space="preserve">
<g>
	<g>
		<path fill="#FFFFFF" d="M31.6,77.6l15.5,2.7c-1.2-3.8-2-7.8-2.3-12l14.4,2.1v8.8h37.7v-6.2h6.6v6.2h37.6v-8.5l12-1.8
			c-0.1,2.9-0.5,6-1.1,9.1l11.9-2.2C161.4,43.5,149.2,0,98.1,0c-7.2,0-15.7,0.9-19.4,2.6C75,4.2,74.4,8,72,8.8
			c-2.5,0.8-6,0.5-8.2,1.6c-34,16.4-32.8,56.3-32.8,56.3L31.6,77.6z M92.6,74.9H63.3V60h29.3V74.9z M136.9,74.9h-29.3V60h29.3V74.9z
			 M45,58.7c15.1-1,32.3-12.9,33.6-29.6c19.2,15.9,46.3,16.6,69,18.7c2.8,1.3,4.9,7,5.5,14.6l-11.8,1.8v-8.4h-37.6v8.7h-6.6v-8.7
			H59.1V64l-14.6-2.1C44.7,60.9,44.8,59.8,45,58.7z"/>
		<path fill="#FFFFFF" d="M188.5,153.6c0-7.8-3.1-14.7-7.8-18.6V79L95.3,92.6L9.9,79v54.5C4.1,137,0,144.7,0,153.6
			s4.1,16.6,9.9,20.1v44.7l85.4,13.6l85.4-13.6v-46.2C185.4,168.3,188.5,161.4,188.5,153.6z M91.4,223.5l-73.8-11.8v-36.2
			c8.9-0.6,16-10.1,16-21.9c0-11.8-7.1-21.4-16-22V88.1l73.8,11.8V223.5z M172.9,211.7l-73.8,11.8V99.9l73.8-11.8v15.6v28
			c-0.4,0-0.8-0.2-1.2-0.2c-9.3,0-16.8,9.9-16.8,22c0,12.2,7.6,22,16.8,22c0.4,0,0.8-0.1,1.2-0.2V211.7z"/>
	</g>
</g>
</svg>
